<svg xmlns="http://www.w3.org/2000/svg" width="1250" height="760" viewBox="0 0 1250 760">
<rect width="100%" height="100%" fill="white"/>
<text x="625.0" y="35" text-anchor="middle" font-family="Arial" font-size="22" font-weight="700">Absolute Error vs Sample Size</text>
<line x1="90" y1="670" x2="890" y2="670" stroke="#222"/>
<line x1="90" y1="70" x2="90" y2="670" stroke="#222"/>
<line x1="90.00" y1="70" x2="90.00" y2="670" stroke="#e5e7eb"/>
<text x="90.00" y="698" text-anchor="middle" font-family="Arial" font-size="13">100</text>
<line x1="356.67" y1="70" x2="356.67" y2="670" stroke="#e5e7eb"/>
<text x="356.67" y="698" text-anchor="middle" font-family="Arial" font-size="13">1000</text>
<line x1="623.33" y1="70" x2="623.33" y2="670" stroke="#e5e7eb"/>
<text x="623.33" y="698" text-anchor="middle" font-family="Arial" font-size="13">10000</text>
<line x1="890.00" y1="70" x2="890.00" y2="670" stroke="#e5e7eb"/>
<text x="890.00" y="698" text-anchor="middle" font-family="Arial" font-size="13">100000</text>
<line x1="90" y1="670.00" x2="890" y2="670.00" stroke="#e5e7eb"/>
<text x="78" y="674.00" text-anchor="end" font-family="Arial" font-size="12">-0.185</text>
<line x1="90" y1="550.00" x2="890" y2="550.00" stroke="#e5e7eb"/>
<text x="78" y="554.00" text-anchor="end" font-family="Arial" font-size="12">0.351</text>
<line x1="90" y1="430.00" x2="890" y2="430.00" stroke="#e5e7eb"/>
<text x="78" y="434.00" text-anchor="end" font-family="Arial" font-size="12">0.886</text>
<line x1="90" y1="310.00" x2="890" y2="310.00" stroke="#e5e7eb"/>
<text x="78" y="314.00" text-anchor="end" font-family="Arial" font-size="12">1.422</text>
<line x1="90" y1="190.00" x2="890" y2="190.00" stroke="#e5e7eb"/>
<text x="78" y="194.00" text-anchor="end" font-family="Arial" font-size="12">1.958</text>
<line x1="90" y1="70.00" x2="890" y2="70.00" stroke="#e5e7eb"/>
<text x="78" y="74.00" text-anchor="end" font-family="Arial" font-size="12">2.493</text>
<text x="490.0" y="732" text-anchor="middle" font-family="Arial" font-size="15">Sample size N</text>
<text x="24" y="370.0" text-anchor="middle" font-family="Arial" font-size="15" transform="rotate(-90 24 370.0)">Absolute error</text>
<polyline fill="none" stroke="#1f77b4" stroke-width="2.2" points="90.00,359.83 356.67,523.93 623.33,581.77 890.00,600.18"/>
<circle cx="90.00" cy="359.83" r="3.5" fill="#1f77b4"/>
<circle cx="356.67" cy="523.93" r="3.5" fill="#1f77b4"/>
<circle cx="623.33" cy="581.77" r="3.5" fill="#1f77b4"/>
<circle cx="890.00" cy="600.18" r="3.5" fill="#1f77b4"/>
<polyline fill="none" stroke="#ff7f0e" stroke-width="2.2" points="90.00,567.74 356.67,626.68 623.33,620.29 890.00,624.79"/>
<circle cx="90.00" cy="567.74" r="3.5" fill="#ff7f0e"/>
<circle cx="356.67" cy="626.68" r="3.5" fill="#ff7f0e"/>
<circle cx="623.33" cy="620.29" r="3.5" fill="#ff7f0e"/>
<circle cx="890.00" cy="624.79" r="3.5" fill="#ff7f0e"/>
<polyline fill="none" stroke="#2ca02c" stroke-width="2.2" points="90.00,623.17 356.67,610.18 623.33,627.17 890.00,626.26"/>
<circle cx="90.00" cy="623.17" r="3.5" fill="#2ca02c"/>
<circle cx="356.67" cy="610.18" r="3.5" fill="#2ca02c"/>
<circle cx="623.33" cy="627.17" r="3.5" fill="#2ca02c"/>
<circle cx="890.00" cy="626.26" r="3.5" fill="#2ca02c"/>
<polyline fill="none" stroke="#d62728" stroke-width="2.2" points="90.00,374.62 356.67,606.40 623.33,624.46 890.00,627.82"/>
<circle cx="90.00" cy="374.62" r="3.5" fill="#d62728"/>
<circle cx="356.67" cy="606.40" r="3.5" fill="#d62728"/>
<circle cx="623.33" cy="624.46" r="3.5" fill="#d62728"/>
<circle cx="890.00" cy="627.82" r="3.5" fill="#d62728"/>
<polyline fill="none" stroke="#9467bd" stroke-width="2.2" points="90.00,628.62 356.67,628.62 623.33,628.62 890.00,628.62"/>
<circle cx="90.00" cy="628.62" r="3.5" fill="#9467bd"/>
<circle cx="356.67" cy="628.62" r="3.5" fill="#9467bd"/>
<circle cx="623.33" cy="628.62" r="3.5" fill="#9467bd"/>
<circle cx="890.00" cy="628.62" r="3.5" fill="#9467bd"/>
<polyline fill="none" stroke="#8c564b" stroke-width="2.2" points="90.00,542.83 356.67,623.22 623.33,608.26 890.00,626.65"/>
<circle cx="90.00" cy="542.83" r="3.5" fill="#8c564b"/>
<circle cx="356.67" cy="623.22" r="3.5" fill="#8c564b"/>
<circle cx="623.33" cy="608.26" r="3.5" fill="#8c564b"/>
<circle cx="890.00" cy="626.65" r="3.5" fill="#8c564b"/>
<polyline fill="none" stroke="#e377c2" stroke-width="2.2" points="90.00,610.71 356.67,626.25 623.33,627.11 890.00,628.52"/>
<circle cx="90.00" cy="610.71" r="3.5" fill="#e377c2"/>
<circle cx="356.67" cy="626.25" r="3.5" fill="#e377c2"/>
<circle cx="623.33" cy="627.11" r="3.5" fill="#e377c2"/>
<circle cx="890.00" cy="628.52" r="3.5" fill="#e377c2"/>
<polyline fill="none" stroke="#7f7f7f" stroke-width="2.2" points="90.00,394.13 356.67,625.22 623.33,593.53 890.00,624.90"/>
<circle cx="90.00" cy="394.13" r="3.5" fill="#7f7f7f"/>
<circle cx="356.67" cy="625.22" r="3.5" fill="#7f7f7f"/>
<circle cx="623.33" cy="593.53" r="3.5" fill="#7f7f7f"/>
<circle cx="890.00" cy="624.90" r="3.5" fill="#7f7f7f"/>
<polyline fill="none" stroke="#bcbd22" stroke-width="2.2" points="90.00,111.38 356.67,595.92 623.33,560.36 890.00,612.11"/>
<circle cx="90.00" cy="111.38" r="3.5" fill="#bcbd22"/>
<circle cx="356.67" cy="595.92" r="3.5" fill="#bcbd22"/>
<circle cx="623.33" cy="560.36" r="3.5" fill="#bcbd22"/>
<circle cx="890.00" cy="612.11" r="3.5" fill="#bcbd22"/>
<polyline fill="none" stroke="#17becf" stroke-width="2.2" points="90.00,289.37 356.67,440.95 623.33,566.91 890.00,613.96"/>
<circle cx="90.00" cy="289.37" r="3.5" fill="#17becf"/>
<circle cx="356.67" cy="440.95" r="3.5" fill="#17becf"/>
<circle cx="623.33" cy="566.91" r="3.5" fill="#17becf"/>
<circle cx="890.00" cy="613.96" r="3.5" fill="#17becf"/>
<polyline fill="none" stroke="#111827" stroke-width="2.2" points="90.00,268.79 356.67,424.29 623.33,610.71 890.00,616.27"/>
<circle cx="90.00" cy="268.79" r="3.5" fill="#111827"/>
<circle cx="356.67" cy="424.29" r="3.5" fill="#111827"/>
<circle cx="623.33" cy="610.71" r="3.5" fill="#111827"/>
<circle cx="890.00" cy="616.27" r="3.5" fill="#111827"/>
<line x1="920" y1="82" x2="948" y2="82" stroke="#1f77b4" stroke-width="2.2"/>
<text x="958" y="86" font-family="Arial" font-size="12">Simple MC</text>
<line x1="920" y1="106" x2="948" y2="106" stroke="#ff7f0e" stroke-width="2.2"/>
<text x="958" y="110" font-family="Arial" font-size="12">Stratified MC, step=1</text>
<line x1="920" y1="130" x2="948" y2="130" stroke="#2ca02c" stroke-width="2.2"/>
<text x="958" y="134" font-family="Arial" font-size="12">Stratified MC, step=0.5</text>
<line x1="920" y1="154" x2="948" y2="154" stroke="#d62728" stroke-width="2.2"/>
<text x="958" y="158" font-family="Arial" font-size="12">Importance sampling, p~x^1</text>
<line x1="920" y1="178" x2="948" y2="178" stroke="#9467bd" stroke-width="2.2"/>
<text x="958" y="182" font-family="Arial" font-size="12">Importance sampling, p~x^2</text>
<line x1="920" y1="202" x2="948" y2="202" stroke="#8c564b" stroke-width="2.2"/>
<text x="958" y="206" font-family="Arial" font-size="12">Importance sampling, p~x^3</text>
<line x1="920" y1="226" x2="948" y2="226" stroke="#e377c2" stroke-width="2.2"/>
<text x="958" y="230" font-family="Arial" font-size="12">Multiple IS, balance weights</text>
<line x1="920" y1="250" x2="948" y2="250" stroke="#7f7f7f" stroke-width="2.2"/>
<text x="958" y="254" font-family="Arial" font-size="12">Multiple IS, squared weights</text>
<line x1="920" y1="274" x2="948" y2="274" stroke="#bcbd22" stroke-width="2.2"/>
<text x="958" y="278" font-family="Arial" font-size="12">Russian roulette, R=0.5</text>
<line x1="920" y1="298" x2="948" y2="298" stroke="#17becf" stroke-width="2.2"/>
<text x="958" y="302" font-family="Arial" font-size="12">Russian roulette, R=0.75</text>
<line x1="920" y1="322" x2="948" y2="322" stroke="#111827" stroke-width="2.2"/>
<text x="958" y="326" font-family="Arial" font-size="12">Russian roulette, R=0.95</text>
</svg>